<?xml version="1.0" encoding="iso-8859-1"?>
<!-- Generator: Adobe Illustrator 19.0.0, SVG Export Plug-In . SVG Version: 6.00 Build 0)  -->
<svg version="1.1" id="Layer_1" xmlns="http://www.w3.org/2000/svg" xmlns:xlink="http://www.w3.org/1999/xlink" x="0px" y="0px"
	 viewBox="0 0 512 512" style="enable-background:new 0 0 512 512;" xml:space="preserve">
<circle style="fill:#FECE66;" cx="256" cy="256" r="256"/>
<path style="fill:#F5B540;" d="M510.325,284.946l-178.88-178.883l-0.76-0.756c-4.027-3.865-9.48-6.21-15.429-6.21H196.743
	c-12.321,0-22.399,10.075-22.399,22.393V390.54c0,5.781,2.216,11.033,5.85,14.993l1.519,1.523l103.265,103.265
	C403.202,496.997,497.013,403.179,510.325,284.946z"/>
<path style="fill:#343B43;" d="M337.659,121.489V390.54c0,12.318-10.078,22.363-22.399,22.363H196.743
	c-5.748,0-11.069-2.213-15.033-5.847c-0.562-0.466-1.057-0.958-1.519-1.523c-3.634-3.961-5.85-9.213-5.85-14.993V121.489
	c0-12.318,10.078-22.393,22.399-22.393h118.516c5.949,0,11.399,2.345,15.426,6.21c0.264,0.231,0.529,0.492,0.76,0.756
	C335.31,110.097,337.659,115.547,337.659,121.489z"/>
<g>
	<path style="fill:#495057;" d="M275.387,389.767c0,2.956-2.388,5.341-5.341,5.341h-28.077c-2.937,0-5.355-2.388-5.355-5.341v-2.24
		c0-2.956,2.418-5.381,5.355-5.381h28.077c2.956,0,5.341,2.425,5.341,5.381V389.767z"/>
	<path style="fill:#495057;" d="M279.433,123.845c0,1.219-0.961,2.174-2.167,2.174h-42.499c-1.219,0-2.193-0.955-2.193-2.174v-0.915
		c0-1.186,0.974-2.174,2.193-2.174h42.496c1.206,0,2.167,0.988,2.167,2.174v0.915H279.433z"/>
</g>
<rect x="187.032" y="147.677" style="fill:#FFFFFF;" width="137.929" height="216.692"/>
<rect x="242.159" y="320.941" style="fill:#58B4D9;" width="27.691" height="27.684"/>
<g>
	<rect x="202.752" y="320.941" style="fill:#8FDEF6;" width="27.691" height="27.684"/>
	<rect x="281.534" y="320.941" style="fill:#8FDEF6;" width="27.665" height="27.684"/>
	<rect x="202.752" y="242.193" style="fill:#8FDEF6;" width="27.684" height="27.678"/>
	<rect x="242.159" y="242.193" style="fill:#8FDEF6;" width="27.691" height="27.678"/>
</g>
<rect x="202.752" y="202.818" style="fill:#58B4D9;" width="27.684" height="27.684"/>
<g>
	<rect x="242.159" y="202.818" style="fill:#8FDEF6;" width="27.691" height="27.684"/>
	<rect x="281.534" y="202.818" style="fill:#8FDEF6;" width="27.665" height="27.684"/>
	<rect x="202.752" y="163.411" style="fill:#8FDEF6;" width="27.684" height="27.684"/>
	<rect x="242.159" y="163.411" style="fill:#8FDEF6;" width="27.691" height="27.684"/>
</g>
<rect x="281.534" y="163.411" style="fill:#58B4D9;" width="27.691" height="27.684"/>
<g>
</g>
<g>
</g>
<g>
</g>
<g>
</g>
<g>
</g>
<g>
</g>
<g>
</g>
<g>
</g>
<g>
</g>
<g>
</g>
<g>
</g>
<g>
</g>
<g>
</g>
<g>
</g>
<g>
</g>
</svg>
